<svg preserveAspectRatio="none" overflow="visible" style="display: block;" width="9" height="9" viewBox="0 0 9 9" fill="none" xmlns="http://www.w3.org/2000/svg">
<path id="Vector" opacity="0.2" d="M5.73518 0.471603C5.88442 0.322138 6.06165 0.203557 6.25674 0.122636C6.45183 0.0417156 6.66095 4.2897e-05 6.87215 3.31005e-08C7.08335 -4.28308e-05 7.29249 0.041545 7.48761 0.122386C7.68273 0.203228 7.86001 0.321737 8.00931 0.471141L8.52939 0.9913C8.83072 1.29276 9 1.70158 9 2.12785C9 2.55412 8.83072 2.96294 8.52939 3.2644L3.26722 8.52876C3.11804 8.67818 2.94087 8.79671 2.74583 8.87757C2.5508 8.95843 2.34174 9.00003 2.13062 9H0.346104C0.254312 9 0.166279 8.96353 0.101372 8.89861C0.0364644 8.8337 1.91068e-08 8.74565 1.91068e-08 8.65384V6.87967C-3.25131e-05 6.66873 0.0414785 6.45985 0.122163 6.26496C0.202847 6.07007 0.321124 5.89298 0.47024 5.74381L5.73518 0.471603ZM7.51969 0.960838C7.4347 0.875739 7.33378 0.808229 7.22268 0.762167C7.11159 0.716106 6.99251 0.692398 6.87225 0.692398C6.75199 0.692398 6.6329 0.716106 6.52181 0.762167C6.41072 0.808229 6.30979 0.875739 6.2248 0.960838L5.81132 1.37484L7.62537 3.18917L8.03977 2.7747C8.21133 2.60307 8.30771 2.37031 8.30771 2.12762C8.30771 1.88493 8.21133 1.65217 8.03977 1.48054L7.51969 0.960838Z" fill="black"/>
</svg>
