<svg width="28" height="31" viewBox="0 0 28 31" fill="none" xmlns="http://www.w3.org/2000/svg">
<path d="M3.11111 31C2.25556 31 1.52341 30.6967 0.914667 30.0901C0.305926 29.4836 0.00103704 28.7535 0 27.9V6.2C0 5.3475 0.304889 4.61797 0.914667 4.0114C1.52444 3.40483 2.25659 3.10103 3.11111 3.1H4.66667V0H7.77778V3.1H20.2222V0H23.3333V3.1H24.8889C25.7444 3.1 26.4771 3.4038 27.0869 4.0114C27.6967 4.619 28.001 5.34853 28 6.2V13.95H24.8889V12.4H3.11111V27.9H14V31H3.11111ZM3.11111 9.3H24.8889V6.2H3.11111V9.3Z" fill="#4ABEFF"/>
<g transform="translate(12,14)">
<path d="M9.71429 1.21429C9.71429 0.892237 9.58635 0.583379 9.35863 0.355656C9.13091 0.127934 8.82205 0 8.5 0C8.17795 0 7.86909 0.127934 7.64137 0.355656C7.41365 0.583379 7.28571 0.892237 7.28571 1.21429V7.28571H1.21429C0.892237 7.28571 0.583379 7.41365 0.355656 7.64137C0.127934 7.86909 0 8.17795 0 8.5C0 8.82205 0.127934 9.13091 0.355656 9.35863C0.583379 9.58635 0.892237 9.71429 1.21429 9.71429H7.28571V15.7857C7.28571 16.1078 7.41365 16.4166 7.64137 16.6443C7.86909 16.8721 8.17795 17 8.5 17C8.82205 17 9.13091 16.8721 9.35863 16.6443C9.58635 16.4166 9.71429 16.1078 9.71429 15.7857V9.71429H15.7857C16.1078 9.71429 16.4166 9.58635 16.6443 9.35863C16.8721 9.13091 17 8.82205 17 8.5C17 8.17795 16.8721 7.86909 16.6443 7.64137C16.4166 7.41365 16.1078 7.28571 15.7857 7.28571H9.71429V1.21429Z" fill="#4ABEFF"/>
</g>
</svg>
